<svg xmlns="http://www.w3.org/2000/svg" xmlns:xlink="http://www.w3.org/1999/xlink" width="80" zoomAndPan="magnify" viewBox="0 0 60 44.999999" height="60" preserveAspectRatio="xMidYMid meet" version="1.0"><defs><g/><clipPath id="0b3e507505"><path d="M 21 23 L 29 23 L 29 29.398438 L 21 29.398438 Z M 21 23 " clip-rule="nonzero"/></clipPath><clipPath id="f5aff06d74"><path d="M 27 24 L 35 24 L 35 29.398438 L 27 29.398438 Z M 27 24 " clip-rule="nonzero"/></clipPath><clipPath id="652d75da09"><path d="M 34 18 L 42 18 L 42 29.398438 L 34 29.398438 Z M 34 18 " clip-rule="nonzero"/></clipPath><clipPath id="f0a4f78c25"><path d="M 41 11 L 45.777344 11 L 45.777344 13 L 41 13 Z M 41 11 " clip-rule="nonzero"/></clipPath><clipPath id="f18f463c56"><path d="M 40 8.398438 L 42 8.398438 L 42 13 L 40 13 Z M 40 8.398438 " clip-rule="nonzero"/></clipPath><clipPath id="2999ac1001"><path d="M 14.277344 28 L 45 28 L 45 29.398438 L 14.277344 29.398438 Z M 14.277344 28 " clip-rule="nonzero"/></clipPath><clipPath id="0fb4b9178e"><path d="M 41.734375 33.21875 L 44.550781 33.21875 L 44.550781 36.035156 L 41.734375 36.035156 Z M 41.734375 33.21875 " clip-rule="nonzero"/></clipPath><clipPath id="d1e5abaf32"><path d="M 43.144531 33.21875 C 42.363281 33.21875 41.734375 33.851562 41.734375 34.628906 C 41.734375 35.40625 42.363281 36.035156 43.144531 36.035156 C 43.921875 36.035156 44.550781 35.40625 44.550781 34.628906 C 44.550781 33.851562 43.921875 33.21875 43.144531 33.21875 Z M 43.144531 33.21875 " clip-rule="nonzero"/></clipPath></defs><rect x="-6" width="72" fill="#ffffff" y="-4.5" height="53.999999" fill-opacity="1"/><rect x="-6" width="72" fill="#ffffff" y="-4.5" height="53.999999" fill-opacity="1"/><path fill="#000000" d="M 20.976562 24.980469 C 20.882812 24.980469 20.792969 24.941406 20.734375 24.863281 C 20.628906 24.730469 20.65625 24.539062 20.789062 24.4375 L 24.699219 21.445312 C 24.746094 21.40625 24.808594 21.382812 24.878906 21.382812 C 24.882812 21.382812 24.882812 21.382812 24.886719 21.382812 L 31.675781 21.382812 C 31.738281 21.382812 31.804688 21.402344 31.859375 21.441406 L 35.566406 24.214844 C 35.671875 24.292969 35.714844 24.429688 35.675781 24.554688 C 35.632812 24.679688 35.515625 24.761719 35.386719 24.761719 L 28.253906 24.761719 C 28.179688 24.761719 28.113281 24.738281 28.058594 24.691406 L 24.882812 22.074219 L 21.164062 24.921875 C 21.105469 24.960938 21.039062 24.980469 20.976562 24.980469 Z M 28.363281 24.152344 L 34.46875 24.152344 L 31.570312 21.988281 L 25.734375 21.988281 Z M 28.363281 24.152344 " fill-opacity="1" fill-rule="nonzero"/><path fill="#000000" d="M 33.738281 24.761719 C 33.671875 24.761719 33.609375 24.742188 33.554688 24.699219 L 29.84375 21.925781 C 29.707031 21.824219 29.683594 21.636719 29.78125 21.5 C 29.886719 21.367188 30.074219 21.339844 30.210938 21.441406 L 33.921875 24.214844 C 34.054688 24.316406 34.082031 24.507812 33.980469 24.640625 C 33.921875 24.71875 33.828125 24.761719 33.738281 24.761719 Z M 33.738281 24.761719 " fill-opacity="1" fill-rule="nonzero"/><path fill="#000000" d="M 32.089844 24.761719 C 32.027344 24.761719 31.960938 24.742188 31.90625 24.699219 L 28.195312 21.925781 C 28.0625 21.824219 28.035156 21.636719 28.136719 21.5 C 28.238281 21.367188 28.429688 21.339844 28.5625 21.441406 L 32.273438 24.214844 C 32.40625 24.316406 32.433594 24.507812 32.335938 24.640625 C 32.273438 24.71875 32.183594 24.761719 32.089844 24.761719 Z M 32.089844 24.761719 " fill-opacity="1" fill-rule="nonzero"/><path fill="#000000" d="M 30.441406 24.761719 C 30.378906 24.761719 30.3125 24.742188 30.261719 24.699219 L 26.550781 21.925781 C 26.414062 21.824219 26.390625 21.636719 26.488281 21.5 C 26.589844 21.367188 26.78125 21.339844 26.917969 21.441406 L 30.628906 24.214844 C 30.761719 24.316406 30.789062 24.507812 30.6875 24.640625 C 30.628906 24.71875 30.535156 24.761719 30.441406 24.761719 Z M 30.441406 24.761719 " fill-opacity="1" fill-rule="nonzero"/><g clip-path="url(#0b3e507505)"><path fill="#000000" d="M 28.253906 29.035156 L 21.609375 29.035156 C 21.441406 29.035156 21.304688 28.898438 21.304688 28.730469 L 21.304688 24.195312 C 21.304688 24.027344 21.441406 23.890625 21.609375 23.890625 C 21.777344 23.890625 21.914062 24.023438 21.914062 24.195312 L 21.914062 28.429688 L 27.949219 28.429688 L 27.949219 24.457031 C 27.949219 24.292969 28.085938 24.152344 28.253906 24.152344 C 28.421875 24.152344 28.558594 24.289062 28.558594 24.457031 L 28.558594 28.734375 C 28.554688 28.898438 28.421875 29.035156 28.253906 29.035156 Z M 28.253906 29.035156 " fill-opacity="1" fill-rule="nonzero"/></g><g clip-path="url(#f5aff06d74)"><path fill="#000000" d="M 34.519531 29.035156 L 28.253906 29.035156 C 28.085938 29.035156 27.945312 28.898438 27.945312 28.730469 C 27.945312 28.5625 28.082031 28.425781 28.253906 28.425781 L 34.214844 28.425781 L 34.214844 24.457031 C 34.214844 24.292969 34.351562 24.152344 34.519531 24.152344 C 34.6875 24.152344 34.828125 24.289062 34.828125 24.457031 L 34.828125 28.734375 C 34.824219 28.898438 34.6875 29.035156 34.519531 29.035156 Z M 34.519531 29.035156 " fill-opacity="1" fill-rule="nonzero"/></g><path fill="#000000" d="M 30.027344 27.230469 L 29.285156 27.230469 L 29.285156 25.957031 L 30.027344 25.957031 Z M 30.027344 27.230469 " fill-opacity="1" fill-rule="nonzero"/><path fill="#000000" d="M 31.386719 27.230469 L 30.644531 27.230469 L 30.644531 25.957031 L 31.386719 25.957031 Z M 31.386719 27.230469 " fill-opacity="1" fill-rule="nonzero"/><path fill="#000000" d="M 32.746094 27.230469 L 32.003906 27.230469 L 32.003906 25.957031 L 32.746094 25.957031 Z M 32.746094 27.230469 " fill-opacity="1" fill-rule="nonzero"/><path fill="#000000" d="M 23.785156 28.460938 L 23.046875 28.460938 L 23.046875 25.957031 L 23.785156 25.957031 Z M 23.785156 28.460938 " fill-opacity="1" fill-rule="nonzero"/><path fill="#000000" d="M 25.144531 28.460938 L 24.40625 28.460938 L 24.40625 25.957031 L 25.144531 25.957031 Z M 25.144531 28.460938 " fill-opacity="1" fill-rule="nonzero"/><path fill="#000000" d="M 25.96875 24.886719 L 25.226562 24.886719 L 25.226562 23.585938 L 25.96875 23.585938 Z M 25.96875 24.886719 " fill-opacity="1" fill-rule="nonzero"/><path fill="#000000" d="M 24.40625 24.886719 L 23.664062 24.886719 L 23.664062 23.585938 L 24.40625 23.585938 Z M 24.40625 24.886719 " fill-opacity="1" fill-rule="nonzero"/><path fill="#000000" d="M 26.503906 28.460938 L 25.765625 28.460938 L 25.765625 25.957031 L 26.503906 25.957031 Z M 26.503906 28.460938 " fill-opacity="1" fill-rule="nonzero"/><path fill="#000000" d="M 41.796875 19.4375 C 41.730469 19.4375 41.667969 19.414062 41.609375 19.371094 L 37.890625 16.527344 L 34.714844 19.144531 C 34.660156 19.191406 34.59375 19.214844 34.519531 19.214844 L 27.386719 19.214844 C 27.257812 19.214844 27.140625 19.132812 27.097656 19.007812 C 27.058594 18.882812 27.101562 18.746094 27.207031 18.667969 L 30.914062 15.894531 C 30.96875 15.855469 31.03125 15.835938 31.097656 15.835938 L 37.882812 15.835938 C 37.886719 15.835938 37.890625 15.835938 37.890625 15.835938 C 37.960938 15.835938 38.023438 15.863281 38.070312 15.898438 L 41.984375 18.890625 C 42.117188 18.992188 42.140625 19.183594 42.039062 19.316406 C 41.980469 19.394531 41.886719 19.4375 41.796875 19.4375 Z M 28.300781 18.605469 L 34.40625 18.605469 L 37.035156 16.441406 L 31.199219 16.441406 Z M 28.300781 18.605469 " fill-opacity="1" fill-rule="nonzero"/><path fill="#000000" d="M 29.035156 19.214844 C 28.941406 19.214844 28.847656 19.171875 28.789062 19.09375 C 28.6875 18.960938 28.714844 18.769531 28.847656 18.667969 L 32.558594 15.894531 C 32.695312 15.792969 32.886719 15.820312 32.988281 15.957031 C 33.089844 16.089844 33.0625 16.28125 32.925781 16.382812 L 29.21875 19.152344 C 29.164062 19.195312 29.097656 19.214844 29.035156 19.214844 Z M 29.035156 19.214844 " fill-opacity="1" fill-rule="nonzero"/><path fill="#000000" d="M 30.679688 19.214844 C 30.589844 19.214844 30.496094 19.171875 30.4375 19.09375 C 30.335938 18.960938 30.363281 18.769531 30.496094 18.667969 L 34.207031 15.894531 C 34.34375 15.792969 34.53125 15.820312 34.636719 15.957031 C 34.738281 16.089844 34.710938 16.28125 34.574219 16.382812 L 30.863281 19.15625 C 30.808594 19.195312 30.746094 19.214844 30.679688 19.214844 Z M 30.679688 19.214844 " fill-opacity="1" fill-rule="nonzero"/><path fill="#000000" d="M 32.328125 19.214844 C 32.238281 19.214844 32.144531 19.171875 32.082031 19.09375 C 31.980469 18.960938 32.007812 18.769531 32.144531 18.667969 L 35.855469 15.894531 C 35.988281 15.792969 36.179688 15.820312 36.28125 15.957031 C 36.382812 16.089844 36.355469 16.28125 36.222656 16.382812 L 32.511719 19.15625 C 32.457031 19.195312 32.390625 19.214844 32.328125 19.214844 Z M 32.328125 19.214844 " fill-opacity="1" fill-rule="nonzero"/><g clip-path="url(#652d75da09)"><path fill="#000000" d="M 41.164062 29.035156 L 34.519531 29.035156 C 34.351562 29.035156 34.214844 28.898438 34.214844 28.730469 C 34.214844 28.5625 34.351562 28.425781 34.519531 28.425781 L 40.855469 28.425781 L 40.855469 18.648438 C 40.855469 18.480469 40.992188 18.34375 41.164062 18.34375 C 41.332031 18.34375 41.46875 18.480469 41.46875 18.648438 L 41.46875 28.734375 C 41.46875 28.898438 41.332031 29.035156 41.164062 29.035156 Z M 41.164062 29.035156 " fill-opacity="1" fill-rule="nonzero"/></g><path fill="#000000" d="M 34.519531 23.929688 C 34.351562 23.929688 34.214844 23.796875 34.214844 23.628906 L 34.214844 18.910156 C 34.214844 18.746094 34.351562 18.605469 34.519531 18.605469 C 34.6875 18.605469 34.824219 18.742188 34.824219 18.910156 L 34.824219 23.628906 C 34.824219 23.796875 34.6875 23.929688 34.519531 23.929688 Z M 34.519531 23.929688 " fill-opacity="1" fill-rule="nonzero"/><path fill="#000000" d="M 28.25 21.988281 C 28.082031 21.988281 27.945312 21.851562 27.945312 21.683594 L 27.945312 18.910156 C 27.945312 18.746094 28.082031 18.605469 28.25 18.605469 C 28.417969 18.605469 28.554688 18.742188 28.554688 18.910156 L 28.554688 21.683594 C 28.554688 21.851562 28.417969 21.988281 28.25 21.988281 Z M 28.25 21.988281 " fill-opacity="1" fill-rule="nonzero"/><path fill="#000000" d="M 32.238281 19.949219 L 32.980469 19.949219 L 32.980469 20.875 L 32.238281 20.875 Z M 32.238281 19.949219 " fill-opacity="1" fill-rule="nonzero"/><path fill="#000000" d="M 30.878906 19.949219 L 31.621094 19.949219 L 31.621094 20.875 L 30.878906 20.875 Z M 30.878906 19.949219 " fill-opacity="1" fill-rule="nonzero"/><path fill="#000000" d="M 29.519531 19.949219 L 30.261719 19.949219 L 30.261719 20.875 L 29.519531 20.875 Z M 29.519531 19.949219 " fill-opacity="1" fill-rule="nonzero"/><path fill="#000000" d="M 38.984375 19.730469 L 39.726562 19.730469 L 39.726562 21.683594 L 38.984375 21.683594 Z M 38.984375 19.730469 " fill-opacity="1" fill-rule="nonzero"/><path fill="#000000" d="M 37.625 19.730469 L 38.367188 19.730469 L 38.367188 21.683594 L 37.625 21.683594 Z M 37.625 19.730469 " fill-opacity="1" fill-rule="nonzero"/><path fill="#000000" d="M 36.265625 19.730469 L 37.007812 19.730469 L 37.007812 21.683594 L 36.265625 21.683594 Z M 36.265625 19.730469 " fill-opacity="1" fill-rule="nonzero"/><path fill="#000000" d="M 38.984375 22.992188 L 39.726562 22.992188 L 39.726562 28.5625 L 38.984375 28.5625 Z M 38.984375 22.992188 " fill-opacity="1" fill-rule="nonzero"/><path fill="#000000" d="M 37.625 22.992188 L 38.367188 22.992188 L 38.367188 28.5625 L 37.625 28.5625 Z M 37.625 22.992188 " fill-opacity="1" fill-rule="nonzero"/><path fill="#000000" d="M 36.265625 22.992188 L 37.007812 22.992188 L 37.007812 28.5625 L 36.265625 28.5625 Z M 36.265625 22.992188 " fill-opacity="1" fill-rule="nonzero"/><path fill="#000000" d="M 40.859375 12.074219 L 41.46875 12.074219 L 41.46875 22.753906 L 40.859375 22.753906 Z M 40.859375 12.074219 " fill-opacity="1" fill-rule="nonzero"/><path fill="#000000" d="M 41.019531 12.511719 C 41.019531 12.511719 39.824219 14.464844 38.5 15.121094 C 37.179688 15.78125 38.234375 13.308594 40.144531 12.277344 Z M 41.019531 12.511719 " fill-opacity="1" fill-rule="nonzero"/><path fill="#000000" d="M 40.035156 12.757812 C 40.035156 12.757812 37.515625 13.148438 37.070312 12.757812 C 36.625 12.367188 38.070312 11.195312 40.820312 12.050781 L 41.019531 12.511719 L 40.53125 12.742188 Z M 40.035156 12.757812 " fill-opacity="1" fill-rule="nonzero"/><path fill="#000000" d="M 41.234375 11.835938 C 41.234375 11.835938 40.144531 9.398438 38.714844 9.347656 C 37.285156 9.292969 40.414062 12.050781 40.414062 12.050781 L 41.019531 12.511719 L 41.234375 12.339844 Z M 41.234375 11.835938 " fill-opacity="1" fill-rule="nonzero"/><path fill="#000000" d="M 41.378906 12.511719 C 41.378906 12.511719 42.578125 14.464844 43.898438 15.121094 C 45.222656 15.78125 44.167969 13.308594 42.253906 12.277344 Z M 41.378906 12.511719 " fill-opacity="1" fill-rule="nonzero"/><g clip-path="url(#f0a4f78c25)"><path fill="#000000" d="M 42.363281 12.757812 C 42.363281 12.757812 44.882812 13.148438 45.332031 12.757812 C 45.777344 12.367188 44.328125 11.195312 41.578125 12.050781 L 41.382812 12.511719 L 41.871094 12.742188 Z M 42.363281 12.757812 " fill-opacity="1" fill-rule="nonzero"/></g><path fill="#000000" d="M 41.164062 11.835938 C 41.164062 11.835938 42.253906 9.398438 43.683594 9.347656 C 45.113281 9.292969 41.984375 12.050781 41.984375 12.050781 L 41.378906 12.511719 L 41.164062 12.339844 Z M 41.164062 11.835938 " fill-opacity="1" fill-rule="nonzero"/><g clip-path="url(#f18f463c56)"><path fill="#000000" d="M 41.550781 11.738281 C 41.550781 11.738281 41.597656 8.40625 41.15625 8.40625 C 40.714844 8.40625 40.855469 11.738281 40.855469 11.738281 L 41.15625 12.074219 Z M 41.550781 11.738281 " fill-opacity="1" fill-rule="nonzero"/></g><path fill="#000000" d="M 21.359375 18.617188 L 21.867188 18.617188 L 21.867188 27.566406 L 21.359375 27.566406 Z M 21.359375 18.617188 " fill-opacity="1" fill-rule="nonzero"/><path fill="#000000" d="M 21.492188 18.984375 C 21.492188 18.984375 20.492188 20.621094 19.382812 21.171875 C 18.273438 21.722656 19.160156 19.652344 20.757812 18.789062 Z M 21.492188 18.984375 " fill-opacity="1" fill-rule="nonzero"/><path fill="#000000" d="M 20.667969 19.191406 C 20.667969 19.191406 18.558594 19.519531 18.183594 19.191406 C 17.808594 18.863281 19.023438 17.882812 21.328125 18.597656 L 21.492188 18.984375 L 21.082031 19.175781 Z M 20.667969 19.191406 " fill-opacity="1" fill-rule="nonzero"/><path fill="#000000" d="M 21.671875 18.417969 C 21.671875 18.417969 20.757812 16.378906 19.5625 16.332031 C 18.363281 16.289062 20.984375 18.597656 20.984375 18.597656 L 21.492188 18.984375 L 21.671875 18.839844 Z M 21.671875 18.417969 " fill-opacity="1" fill-rule="nonzero"/><path fill="#000000" d="M 21.792969 18.984375 C 21.792969 18.984375 22.796875 20.621094 23.90625 21.171875 C 25.011719 21.722656 24.128906 19.652344 22.527344 18.789062 Z M 21.792969 18.984375 " fill-opacity="1" fill-rule="nonzero"/><path fill="#000000" d="M 22.617188 19.191406 C 22.617188 19.191406 24.730469 19.519531 25.101562 19.191406 C 25.476562 18.863281 24.265625 17.882812 21.960938 18.597656 L 21.796875 18.984375 L 22.203125 19.175781 Z M 22.617188 19.191406 " fill-opacity="1" fill-rule="nonzero"/><path fill="#000000" d="M 21.613281 18.417969 C 21.613281 18.417969 22.527344 16.378906 23.726562 16.332031 C 24.925781 16.289062 22.304688 18.597656 22.304688 18.597656 L 21.796875 18.984375 L 21.617188 18.839844 L 21.617188 18.417969 Z M 21.613281 18.417969 " fill-opacity="1" fill-rule="nonzero"/><path fill="#000000" d="M 21.9375 18.335938 C 21.9375 18.335938 21.976562 15.542969 21.605469 15.542969 C 21.238281 15.542969 21.351562 18.335938 21.351562 18.335938 L 21.605469 18.617188 Z M 21.9375 18.335938 " fill-opacity="1" fill-rule="nonzero"/><g clip-path="url(#2999ac1001)"><path fill="#000000" d="M 14.328125 28.40625 L 44.671875 28.40625 L 44.671875 29.015625 L 14.328125 29.015625 Z M 14.328125 28.40625 " fill-opacity="1" fill-rule="nonzero"/></g><path fill="#f8be3e" d="M 19.179688 22.996094 C 19.394531 23.210938 19.5625 23.457031 19.679688 23.738281 C 19.796875 24.019531 19.855469 24.3125 19.855469 24.617188 C 19.855469 24.921875 19.796875 25.214844 19.679688 25.496094 C 19.5625 25.78125 19.394531 26.027344 19.179688 26.242188 C 18.960938 26.457031 18.710938 26.625 18.429688 26.742188 C 18.144531 26.859375 17.851562 26.917969 17.546875 26.917969 C 17.238281 26.917969 16.945312 26.859375 16.660156 26.742188 C 16.378906 26.625 16.128906 26.457031 15.910156 26.242188 C 15.695312 26.027344 15.527344 25.78125 15.410156 25.496094 C 15.292969 25.214844 15.234375 24.921875 15.234375 24.617188 C 15.234375 24.3125 15.292969 24.019531 15.410156 23.738281 C 15.527344 23.457031 15.695312 23.210938 15.910156 22.996094 C 16.128906 22.777344 16.378906 22.613281 16.660156 22.496094 C 16.945312 22.378906 17.238281 22.320312 17.546875 22.320312 C 17.851562 22.320312 18.144531 22.378906 18.429688 22.496094 C 18.710938 22.613281 18.960938 22.777344 19.179688 22.996094 Z M 19.179688 22.996094 " fill-opacity="1" fill-rule="nonzero"/><g fill="#000000" fill-opacity="1"><g transform="translate(11.927399, 36.40612)"><g><path d="M 2.671875 0.015625 C 2.546875 0.0351562 2.421875 0.046875 2.296875 0.046875 L 2.234375 0.046875 C 2.109375 0.046875 1.984375 0.0351562 1.859375 0.015625 C 1.742188 -0.00390625 1.632812 -0.03125 1.53125 -0.0625 C 1.414062 -0.101562 1.304688 -0.148438 1.203125 -0.203125 C 0.878906 -0.378906 0.632812 -0.609375 0.46875 -0.890625 C 0.300781 -1.171875 0.21875 -1.472656 0.21875 -1.796875 C 0.21875 -2.285156 0.40625 -2.710938 0.78125 -3.078125 C 1.195312 -3.441406 1.691406 -3.625 2.265625 -3.625 C 2.640625 -3.625 2.988281 -3.53125 3.3125 -3.34375 L 3.359375 -3.328125 L 3.359375 -2.9375 L 3.21875 -3.03125 C 2.9375 -3.21875 2.617188 -3.3125 2.265625 -3.3125 C 1.785156 -3.3125 1.375 -3.164062 1.03125 -2.875 C 0.695312 -2.570312 0.53125 -2.207031 0.53125 -1.78125 C 0.53125 -1.363281 0.695312 -1.003906 1.03125 -0.703125 C 1.375 -0.398438 1.785156 -0.25 2.265625 -0.25 C 2.617188 -0.25 2.9375 -0.347656 3.21875 -0.546875 L 3.359375 -0.625 L 3.359375 -0.25 L 3.3125 -0.234375 C 3.207031 -0.160156 3.101562 -0.101562 3 -0.0625 C 2.894531 -0.03125 2.785156 -0.00390625 2.671875 0.015625 Z M 2.671875 0.015625 "/></g></g></g><g fill="#000000" fill-opacity="1"><g transform="translate(15.568054, 36.40612)"><g><path d="M 2.1875 0.0625 C 1.644531 0.0625 1.171875 -0.125 0.765625 -0.5 C 0.398438 -0.863281 0.21875 -1.289062 0.21875 -1.78125 C 0.21875 -2.28125 0.40625 -2.710938 0.78125 -3.078125 C 1.1875 -3.429688 1.671875 -3.609375 2.234375 -3.609375 C 2.796875 -3.609375 3.273438 -3.429688 3.671875 -3.078125 C 4.046875 -2.710938 4.234375 -2.28125 4.234375 -1.78125 C 4.234375 -1.289062 4.046875 -0.863281 3.671875 -0.5 C 3.285156 -0.125 2.816406 0.0625 2.265625 0.0625 Z M 3.421875 -0.703125 C 3.753906 -0.992188 3.921875 -1.347656 3.921875 -1.765625 C 3.921875 -2.191406 3.757812 -2.554688 3.4375 -2.859375 C 3.101562 -3.160156 2.703125 -3.3125 2.234375 -3.3125 C 1.765625 -3.3125 1.359375 -3.160156 1.015625 -2.859375 C 0.691406 -2.554688 0.53125 -2.191406 0.53125 -1.765625 C 0.53125 -1.347656 0.691406 -0.992188 1.015625 -0.703125 C 1.359375 -0.390625 1.757812 -0.234375 2.21875 -0.234375 C 2.6875 -0.234375 3.085938 -0.390625 3.421875 -0.703125 Z M 3.421875 -0.703125 "/></g></g></g><g fill="#000000" fill-opacity="1"><g transform="translate(20.024063, 36.40612)"><g><path d="M 0.359375 -3.546875 L 0.640625 -3.546875 C 1.015625 -3.546875 1.359375 -3.429688 1.671875 -3.203125 C 1.921875 -2.972656 2.046875 -2.703125 2.046875 -2.390625 C 2.046875 -2.234375 2.007812 -2.085938 1.9375 -1.953125 C 1.875 -1.816406 1.785156 -1.691406 1.671875 -1.578125 C 1.597656 -1.523438 1.523438 -1.476562 1.453125 -1.4375 C 1.390625 -1.40625 1.320312 -1.375 1.25 -1.34375 C 1.175781 -1.320312 1.101562 -1.300781 1.03125 -1.28125 C 0.957031 -1.257812 0.890625 -1.242188 0.828125 -1.234375 L 2.09375 -0.125 L 2.21875 0 L 1.796875 0 L 1.765625 -0.03125 L 0.8125 -0.84375 L 0.671875 -1 L 0.671875 0 L 0.359375 0 Z M 0.671875 -3.328125 L 0.671875 -1.5 C 0.796875 -1.5 0.914062 -1.523438 1.03125 -1.578125 C 1.15625 -1.617188 1.28125 -1.6875 1.40625 -1.78125 C 1.625 -1.957031 1.734375 -2.171875 1.734375 -2.421875 C 1.734375 -2.535156 1.707031 -2.648438 1.65625 -2.765625 C 1.601562 -2.867188 1.515625 -2.96875 1.390625 -3.0625 C 1.160156 -3.226562 0.921875 -3.316406 0.671875 -3.328125 Z M 0.671875 -3.328125 "/></g></g></g><g fill="#000000" fill-opacity="1"><g transform="translate(22.28525, 36.40612)"><g><path d="M 2.1875 0.0625 C 1.644531 0.0625 1.171875 -0.125 0.765625 -0.5 C 0.398438 -0.863281 0.21875 -1.289062 0.21875 -1.78125 C 0.21875 -2.28125 0.40625 -2.710938 0.78125 -3.078125 C 1.1875 -3.429688 1.671875 -3.609375 2.234375 -3.609375 C 2.796875 -3.609375 3.273438 -3.429688 3.671875 -3.078125 C 4.046875 -2.710938 4.234375 -2.28125 4.234375 -1.78125 C 4.234375 -1.289062 4.046875 -0.863281 3.671875 -0.5 C 3.285156 -0.125 2.816406 0.0625 2.265625 0.0625 Z M 3.421875 -0.703125 C 3.753906 -0.992188 3.921875 -1.347656 3.921875 -1.765625 C 3.921875 -2.191406 3.757812 -2.554688 3.4375 -2.859375 C 3.101562 -3.160156 2.703125 -3.3125 2.234375 -3.3125 C 1.765625 -3.3125 1.359375 -3.160156 1.015625 -2.859375 C 0.691406 -2.554688 0.53125 -2.191406 0.53125 -1.765625 C 0.53125 -1.347656 0.691406 -0.992188 1.015625 -0.703125 C 1.359375 -0.390625 1.757812 -0.234375 2.21875 -0.234375 C 2.6875 -0.234375 3.085938 -0.390625 3.421875 -0.703125 Z M 3.421875 -0.703125 "/></g></g></g><g fill="#000000" fill-opacity="1"><g transform="translate(26.741259, 36.40612)"><g><path d="M 3.140625 -3.546875 L 3.4375 -3.546875 L 3.4375 0.203125 L 3.296875 0.03125 L 0.65625 -3.015625 L 0.65625 0 L 0.359375 0 L 0.359375 -3.75 L 0.5 -3.578125 L 3.140625 -0.546875 Z M 3.140625 -3.546875 "/></g></g></g><g fill="#000000" fill-opacity="1"><g transform="translate(30.538349, 36.40612)"><g><path d="M 2.125 -3.734375 L 2.203125 -3.59375 L 4.0625 -0.109375 L 4.125 0 L 3.765625 0 L 3.75 -0.046875 L 3.0625 -1.359375 L 1.15625 -1.359375 L 0.5 -0.046875 L 0.46875 0 L 0.140625 0 L 0.203125 -0.109375 L 2.046875 -3.59375 Z M 2.921875 -1.578125 L 2.109375 -3.125 L 1.3125 -1.578125 Z M 2.921875 -1.578125 "/></g></g></g><g fill="#000000" fill-opacity="1"><g transform="translate(34.705192, 36.40612)"><g><path d="M 0.359375 -3.546875 L 0.59375 -3.546875 C 1.195312 -3.546875 1.695312 -3.375 2.09375 -3.03125 C 2.4375 -2.675781 2.609375 -2.253906 2.609375 -1.765625 C 2.609375 -1.285156 2.441406 -0.867188 2.109375 -0.515625 C 1.710938 -0.171875 1.207031 0 0.59375 0 L 0.359375 0 Z M 1.84375 -2.875 C 1.519531 -3.164062 1.128906 -3.316406 0.671875 -3.328125 L 0.671875 -0.234375 C 1.128906 -0.242188 1.519531 -0.394531 1.84375 -0.6875 C 1.945312 -0.78125 2.035156 -0.882812 2.109375 -1 C 2.160156 -1.113281 2.203125 -1.234375 2.234375 -1.359375 C 2.265625 -1.492188 2.28125 -1.628906 2.28125 -1.765625 C 2.28125 -2.191406 2.132812 -2.5625 1.84375 -2.875 Z M 1.84375 -2.875 "/></g></g></g><g fill="#000000" fill-opacity="1"><g transform="translate(37.530493, 36.40612)"><g><path d="M 0.375 -3.546875 L 0.703125 -3.546875 L 0.703125 0 L 0.375 0 Z M 0.375 -3.546875 "/></g></g></g><g fill="#000000" fill-opacity="1"><g transform="translate(38.611312, 36.40612)"><g><path d="M 2.203125 -3.546875 L 2.203125 -3.25 L 1.359375 -3.25 L 1.359375 0 L 0.96875 0 L 0.96875 -3.25 L 0.09375 -3.25 L 0.09375 -3.546875 Z M 2.203125 -3.546875 "/></g></g></g><g fill="#000000" fill-opacity="1"><g transform="translate(40.919903, 36.40612)"><g><path d="M 2.1875 0.0625 C 1.644531 0.0625 1.171875 -0.125 0.765625 -0.5 C 0.398438 -0.863281 0.21875 -1.289062 0.21875 -1.78125 C 0.21875 -2.28125 0.40625 -2.710938 0.78125 -3.078125 C 1.1875 -3.429688 1.671875 -3.609375 2.234375 -3.609375 C 2.796875 -3.609375 3.273438 -3.429688 3.671875 -3.078125 C 4.046875 -2.710938 4.234375 -2.28125 4.234375 -1.78125 C 4.234375 -1.289062 4.046875 -0.863281 3.671875 -0.5 C 3.285156 -0.125 2.816406 0.0625 2.265625 0.0625 Z M 3.421875 -0.703125 C 3.753906 -0.992188 3.921875 -1.347656 3.921875 -1.765625 C 3.921875 -2.191406 3.757812 -2.554688 3.4375 -2.859375 C 3.101562 -3.160156 2.703125 -3.3125 2.234375 -3.3125 C 1.765625 -3.3125 1.359375 -3.160156 1.015625 -2.859375 C 0.691406 -2.554688 0.53125 -2.191406 0.53125 -1.765625 C 0.53125 -1.347656 0.691406 -0.992188 1.015625 -0.703125 C 1.359375 -0.390625 1.757812 -0.234375 2.21875 -0.234375 C 2.6875 -0.234375 3.085938 -0.390625 3.421875 -0.703125 Z M 3.421875 -0.703125 "/></g></g></g><g fill="#000000" fill-opacity="1"><g transform="translate(45.375911, 36.40612)"><g><path d="M 1.953125 -2.921875 C 1.878906 -3.046875 1.78125 -3.140625 1.65625 -3.203125 C 1.53125 -3.273438 1.382812 -3.3125 1.21875 -3.3125 C 1.0625 -3.3125 0.925781 -3.269531 0.8125 -3.1875 C 0.71875 -3.113281 0.671875 -3.007812 0.671875 -2.875 L 0.671875 -2.84375 C 0.671875 -2.769531 0.695312 -2.695312 0.75 -2.625 C 0.800781 -2.539062 0.890625 -2.460938 1.015625 -2.390625 C 1.066406 -2.359375 1.125 -2.328125 1.1875 -2.296875 C 1.21875 -2.273438 1.25 -2.253906 1.28125 -2.234375 C 1.3125 -2.222656 1.34375 -2.210938 1.375 -2.203125 C 1.414062 -2.179688 1.457031 -2.160156 1.5 -2.140625 C 1.550781 -2.117188 1.597656 -2.09375 1.640625 -2.0625 C 1.691406 -2.039062 1.742188 -2.019531 1.796875 -2 C 1.867188 -1.957031 1.929688 -1.914062 1.984375 -1.875 C 2.035156 -1.832031 2.085938 -1.789062 2.140625 -1.75 C 2.242188 -1.664062 2.332031 -1.554688 2.40625 -1.421875 C 2.46875 -1.285156 2.5 -1.144531 2.5 -1 L 2.5 -0.953125 C 2.5 -0.640625 2.382812 -0.390625 2.15625 -0.203125 C 1.9375 -0.0234375 1.640625 0.0625 1.265625 0.0625 C 0.785156 0.0625 0.429688 -0.109375 0.203125 -0.453125 L 0.1875 -0.484375 L 0.1875 -1.140625 L 0.34375 -0.796875 C 0.414062 -0.628906 0.53125 -0.492188 0.6875 -0.390625 C 0.84375 -0.285156 1.050781 -0.234375 1.3125 -0.234375 C 1.5625 -0.234375 1.773438 -0.300781 1.953125 -0.4375 C 2.109375 -0.5625 2.1875 -0.734375 2.1875 -0.953125 L 2.1875 -0.984375 C 2.1875 -1.117188 2.148438 -1.238281 2.078125 -1.34375 C 2.023438 -1.425781 1.957031 -1.5 1.875 -1.5625 C 1.84375 -1.582031 1.804688 -1.609375 1.765625 -1.640625 L 1.296875 -1.890625 C 1.191406 -1.941406 1.085938 -1.992188 0.984375 -2.046875 C 0.929688 -2.078125 0.878906 -2.101562 0.828125 -2.125 C 0.691406 -2.207031 0.582031 -2.3125 0.5 -2.4375 C 0.40625 -2.5625 0.359375 -2.695312 0.359375 -2.84375 L 0.359375 -2.890625 C 0.359375 -3.117188 0.4375 -3.296875 0.59375 -3.421875 C 0.757812 -3.546875 0.976562 -3.609375 1.25 -3.609375 C 1.332031 -3.609375 1.414062 -3.597656 1.5 -3.578125 C 1.582031 -3.566406 1.660156 -3.546875 1.734375 -3.515625 C 1.804688 -3.492188 1.878906 -3.457031 1.953125 -3.40625 C 2.003906 -3.363281 2.050781 -3.3125 2.09375 -3.25 L 2.109375 -3.234375 L 2.109375 -2.640625 Z M 1.953125 -2.921875 "/></g></g></g><g clip-path="url(#0fb4b9178e)"><g clip-path="url(#d1e5abaf32)"><path fill="#f8be3e" d="M 41.734375 33.21875 L 44.550781 33.21875 L 44.550781 36.035156 L 41.734375 36.035156 Z M 41.734375 33.21875 " fill-opacity="1" fill-rule="nonzero"/></g></g></svg>