<svg xmlns="http://www.w3.org/2000/svg" xmlns:xlink="http://www.w3.org/1999/xlink" width="500" zoomAndPan="magnify" viewBox="0 0 375 374.999991" height="500" preserveAspectRatio="xMidYMid meet" version="1.2"><defs><clipPath id="eab97076bd"><path d="M 327 29.738281 L 337 29.738281 L 337 77 L 327 77 Z M 327 29.738281 "/></clipPath></defs><g id="2a12dfdcbb"><rect x="0" width="375" y="0" height="374.999991" style="fill:#ffffff;fill-opacity:1;stroke:none;"/><rect x="0" width="375" y="0" height="374.999991" style="fill:#ffffff;fill-opacity:1;stroke:none;"/><path style=" stroke:none;fill-rule:nonzero;fill:#000000;fill-opacity:1;" d="M 77.398438 239.417969 C 76.242188 239.417969 75.101562 238.898438 74.359375 237.925781 C 73.054688 236.25 73.386719 233.832031 75.0625 232.546875 L 124.203125 194.707031 C 124.824219 194.210938 125.613281 193.917969 126.460938 193.898438 C 126.5 193.898438 126.542969 193.898438 126.582031 193.898438 L 211.894531 193.898438 C 212.722656 193.898438 213.53125 194.167969 214.214844 194.664062 L 260.851562 229.734375 C 262.175781 230.726562 262.714844 232.445312 262.199219 234.015625 C 261.679688 235.589844 260.210938 236.644531 258.554688 236.644531 L 168.878906 236.644531 C 167.988281 236.644531 167.121094 236.335938 166.4375 235.753906 L 126.5 202.652344 L 79.757812 238.628906 C 79.035156 239.167969 78.207031 239.417969 77.398438 239.417969 Z M 170.265625 228.949219 L 247.03125 228.949219 L 210.613281 201.554688 L 137.21875 201.554688 Z M 170.265625 228.949219 "/><path style=" stroke:none;fill-rule:nonzero;fill:#000000;fill-opacity:1;" d="M 237.824219 236.625 C 237.015625 236.625 236.210938 236.375 235.527344 235.859375 L 188.886719 200.789062 C 187.191406 199.507812 186.859375 197.105469 188.121094 195.410156 C 189.402344 193.710938 191.804688 193.359375 193.5 194.644531 L 240.140625 229.714844 C 241.835938 230.996094 242.167969 233.394531 240.90625 235.09375 C 240.140625 236.105469 238.980469 236.625 237.824219 236.625 Z M 237.824219 236.625 "/><path style=" stroke:none;fill-rule:nonzero;fill:#000000;fill-opacity:1;" d="M 217.132812 236.625 C 216.324219 236.625 215.515625 236.375 214.835938 235.859375 L 168.175781 200.789062 C 166.476562 199.507812 166.148438 197.105469 167.410156 195.410156 C 168.691406 193.710938 171.09375 193.359375 172.789062 194.644531 L 219.429688 229.714844 C 221.125 230.996094 221.457031 233.394531 220.195312 235.09375 C 219.449219 236.105469 218.289062 236.625 217.132812 236.625 Z M 217.132812 236.625 "/><path style=" stroke:none;fill-rule:nonzero;fill:#000000;fill-opacity:1;" d="M 196.417969 236.625 C 195.613281 236.625 194.804688 236.375 194.121094 235.859375 L 147.484375 200.789062 C 145.785156 199.507812 145.453125 197.105469 146.71875 195.410156 C 148 193.710938 150.398438 193.359375 152.097656 194.644531 L 198.734375 229.714844 C 200.433594 230.996094 200.765625 233.394531 199.5 235.09375 C 198.734375 236.105469 197.578125 236.625 196.417969 236.625 Z M 196.417969 236.625 "/><path style=" stroke:none;fill-rule:nonzero;fill:#000000;fill-opacity:1;" d="M 168.878906 290.664062 L 85.367188 290.664062 C 83.253906 290.664062 81.515625 288.949219 81.515625 286.816406 L 81.515625 229.445312 C 81.515625 227.332031 83.234375 225.597656 85.367188 225.597656 C 87.476562 225.597656 89.214844 227.3125 89.214844 229.445312 L 89.214844 282.988281 L 165.050781 282.988281 L 165.050781 232.796875 C 165.050781 230.6875 166.765625 228.949219 168.898438 228.949219 C 171.007812 228.949219 172.746094 230.664062 172.746094 232.796875 L 172.746094 286.839844 C 172.707031 288.949219 170.988281 290.664062 168.878906 290.664062 Z M 168.878906 290.664062 "/><path style=" stroke:none;fill-rule:nonzero;fill:#000000;fill-opacity:1;" d="M 247.691406 290.664062 L 168.878906 290.664062 C 166.765625 290.664062 165.027344 288.949219 165.027344 286.816406 C 165.027344 284.707031 166.746094 282.96875 168.878906 282.96875 L 243.84375 282.96875 L 243.84375 232.796875 C 243.84375 230.6875 245.5625 228.949219 247.691406 228.949219 C 249.804688 228.949219 251.542969 230.664062 251.542969 232.796875 L 251.542969 286.839844 C 251.519531 288.949219 249.804688 290.664062 247.691406 290.664062 Z M 247.691406 290.664062 "/><path style=" stroke:none;fill-rule:nonzero;fill:#000000;fill-opacity:1;" d="M 191.183594 267.84375 L 181.871094 267.84375 L 181.871094 251.75 L 191.183594 251.75 Z M 191.183594 267.84375 "/><path style=" stroke:none;fill-rule:nonzero;fill:#000000;fill-opacity:1;" d="M 208.269531 267.84375 L 198.957031 267.84375 L 198.957031 251.75 L 208.269531 251.75 Z M 208.269531 267.84375 "/><path style=" stroke:none;fill-rule:nonzero;fill:#000000;fill-opacity:1;" d="M 225.375 267.84375 L 216.0625 267.84375 L 216.0625 251.75 L 225.375 251.75 Z M 225.375 267.84375 "/><path style=" stroke:none;fill-rule:nonzero;fill:#000000;fill-opacity:1;" d="M 112.746094 283.390625 L 103.433594 283.390625 L 103.433594 251.753906 L 112.746094 251.753906 Z M 112.746094 283.390625 "/><path style=" stroke:none;fill-rule:nonzero;fill:#000000;fill-opacity:1;" d="M 129.828125 283.390625 L 120.519531 283.390625 L 120.519531 251.753906 L 129.828125 251.753906 Z M 129.828125 283.390625 "/><path style=" stroke:none;fill-rule:nonzero;fill:#000000;fill-opacity:1;" d="M 140.152344 238.199219 L 130.84375 238.199219 L 130.84375 221.75 L 140.152344 221.75 Z M 140.152344 238.199219 "/><path style=" stroke:none;fill-rule:nonzero;fill:#000000;fill-opacity:1;" d="M 120.515625 238.199219 L 111.203125 238.199219 L 111.203125 221.75 L 120.515625 221.75 Z M 120.515625 238.199219 "/><path style=" stroke:none;fill-rule:nonzero;fill:#000000;fill-opacity:1;" d="M 146.914062 283.390625 L 137.605469 283.390625 L 137.605469 251.753906 L 146.914062 251.753906 Z M 146.914062 283.390625 "/><path style=" stroke:none;fill-rule:nonzero;fill:#000000;fill-opacity:1;" d="M 339.152344 169.296875 C 338.324219 169.296875 337.515625 169.03125 336.8125 168.492188 L 290.070312 132.511719 L 250.132812 165.617188 C 249.453125 166.195312 248.582031 166.503906 247.691406 166.503906 L 158.015625 166.503906 C 156.359375 166.503906 154.890625 165.449219 154.371094 163.878906 C 153.855469 162.304688 154.394531 160.589844 155.71875 159.59375 L 202.355469 124.527344 C 203.019531 124.027344 203.828125 123.761719 204.675781 123.761719 L 289.945312 123.761719 C 289.988281 123.761719 290.027344 123.761719 290.070312 123.761719 C 290.917969 123.78125 291.703125 124.089844 292.324219 124.566406 L 341.488281 162.410156 C 343.164062 163.691406 343.476562 166.113281 342.191406 167.789062 C 341.449219 168.78125 340.289062 169.296875 339.152344 169.296875 Z M 169.5 158.808594 L 246.265625 158.808594 L 279.289062 131.414062 L 205.9375 131.414062 Z M 169.5 158.808594 "/><path style=" stroke:none;fill-rule:nonzero;fill:#000000;fill-opacity:1;" d="M 178.707031 166.503906 C 177.546875 166.503906 176.390625 165.96875 175.625 164.972656 C 174.339844 163.277344 174.691406 160.878906 176.390625 159.59375 L 223.027344 124.527344 C 224.726562 123.242188 227.125 123.59375 228.410156 125.292969 C 229.691406 126.988281 229.339844 129.386719 227.644531 130.671875 L 181.023438 165.71875 C 180.320312 166.238281 179.511719 166.503906 178.707031 166.503906 Z M 178.707031 166.503906 "/><path style=" stroke:none;fill-rule:nonzero;fill:#000000;fill-opacity:1;" d="M 199.417969 166.503906 C 198.261719 166.503906 197.101562 165.96875 196.335938 164.972656 C 195.054688 163.277344 195.40625 160.878906 197.101562 159.59375 L 243.742188 124.527344 C 245.4375 123.242188 247.839844 123.59375 249.121094 125.292969 C 250.402344 126.988281 250.050781 129.386719 248.355469 130.671875 L 201.714844 165.738281 C 201.03125 166.238281 200.226562 166.503906 199.417969 166.503906 Z M 199.417969 166.503906 "/><path style=" stroke:none;fill-rule:nonzero;fill:#000000;fill-opacity:1;" d="M 220.132812 166.503906 C 218.972656 166.503906 217.8125 165.96875 217.046875 164.972656 C 215.765625 163.277344 216.117188 160.878906 217.8125 159.59375 L 264.453125 124.527344 C 266.148438 123.242188 268.550781 123.59375 269.832031 125.292969 C 271.117188 126.988281 270.765625 129.386719 269.066406 130.671875 L 222.429688 165.738281 C 221.746094 166.238281 220.917969 166.503906 220.132812 166.503906 Z M 220.132812 166.503906 "/><path style=" stroke:none;fill-rule:nonzero;fill:#000000;fill-opacity:1;" d="M 331.183594 290.664062 L 247.671875 290.664062 C 245.5625 290.664062 243.824219 288.949219 243.824219 286.816406 C 243.824219 284.707031 245.542969 282.96875 247.671875 282.96875 L 327.335938 282.96875 L 327.335938 159.324219 C 327.335938 157.214844 329.054688 155.476562 331.183594 155.476562 C 333.296875 155.476562 335.035156 157.195312 335.035156 159.324219 L 335.035156 286.839844 C 335.011719 288.949219 333.296875 290.664062 331.183594 290.664062 Z M 331.183594 290.664062 "/><path style=" stroke:none;fill-rule:nonzero;fill:#000000;fill-opacity:1;" d="M 247.671875 226.132812 C 245.5625 226.132812 243.824219 224.417969 243.824219 222.285156 L 243.824219 162.65625 C 243.824219 160.546875 245.542969 158.808594 247.671875 158.808594 C 249.78125 158.808594 251.519531 160.527344 251.519531 162.65625 L 251.519531 222.304688 C 251.5 224.417969 249.78125 226.132812 247.671875 226.132812 Z M 247.671875 226.132812 "/><path style=" stroke:none;fill-rule:nonzero;fill:#000000;fill-opacity:1;" d="M 168.855469 201.554688 C 166.746094 201.554688 165.007812 199.835938 165.007812 197.707031 L 165.007812 162.65625 C 165.007812 160.546875 166.726562 158.808594 168.855469 158.808594 C 170.96875 158.808594 172.707031 160.527344 172.707031 162.65625 L 172.707031 197.726562 C 172.683594 199.835938 170.96875 201.554688 168.855469 201.554688 Z M 168.855469 201.554688 "/><path style=" stroke:none;fill-rule:nonzero;fill:#000000;fill-opacity:1;" d="M 218.992188 175.796875 L 228.304688 175.796875 L 228.304688 187.484375 L 218.992188 187.484375 Z M 218.992188 175.796875 "/><path style=" stroke:none;fill-rule:nonzero;fill:#000000;fill-opacity:1;" d="M 201.902344 175.796875 L 211.214844 175.796875 L 211.214844 187.484375 L 201.902344 187.484375 Z M 201.902344 175.796875 "/><path style=" stroke:none;fill-rule:nonzero;fill:#000000;fill-opacity:1;" d="M 184.8125 175.796875 L 194.121094 175.796875 L 194.121094 187.484375 L 184.8125 187.484375 Z M 184.8125 175.796875 "/><path style=" stroke:none;fill-rule:nonzero;fill:#000000;fill-opacity:1;" d="M 303.808594 173.023438 L 313.121094 173.023438 L 313.121094 197.726562 L 303.808594 197.726562 Z M 303.808594 173.023438 "/><path style=" stroke:none;fill-rule:nonzero;fill:#000000;fill-opacity:1;" d="M 286.71875 173.023438 L 296.027344 173.023438 L 296.027344 197.726562 L 286.71875 197.726562 Z M 286.71875 173.023438 "/><path style=" stroke:none;fill-rule:nonzero;fill:#000000;fill-opacity:1;" d="M 269.625 173.023438 L 278.9375 173.023438 L 278.9375 197.726562 L 269.625 197.726562 Z M 269.625 173.023438 "/><path style=" stroke:none;fill-rule:nonzero;fill:#000000;fill-opacity:1;" d="M 303.808594 214.238281 L 313.121094 214.238281 L 313.121094 284.707031 L 303.808594 284.707031 Z M 303.808594 214.238281 "/><path style=" stroke:none;fill-rule:nonzero;fill:#000000;fill-opacity:1;" d="M 286.71875 214.238281 L 296.027344 214.238281 L 296.027344 284.707031 L 286.71875 284.707031 Z M 286.71875 214.238281 "/><path style=" stroke:none;fill-rule:nonzero;fill:#000000;fill-opacity:1;" d="M 269.625 214.238281 L 278.9375 214.238281 L 278.9375 284.707031 L 269.625 284.707031 Z M 269.625 214.238281 "/><path style=" stroke:none;fill-rule:nonzero;fill:#000000;fill-opacity:1;" d="M 327.378906 76.195312 L 335.035156 76.195312 L 335.035156 211.257812 L 327.378906 211.257812 Z M 327.378906 76.195312 "/><path style=" stroke:none;fill-rule:nonzero;fill:#000000;fill-opacity:1;" d="M 329.40625 81.71875 C 329.40625 81.71875 314.339844 106.441406 297.726562 114.738281 C 281.089844 123.054688 294.351562 91.816406 318.398438 78.78125 Z M 329.40625 81.71875 "/><path style=" stroke:none;fill-rule:nonzero;fill:#000000;fill-opacity:1;" d="M 317.03125 84.863281 C 317.03125 84.863281 285.351562 89.808594 279.722656 84.863281 C 274.117188 79.917969 292.304688 65.082031 326.902344 75.882812 L 329.363281 81.71875 L 323.257812 84.636719 Z M 317.03125 84.863281 "/><path style=" stroke:none;fill-rule:nonzero;fill:#000000;fill-opacity:1;" d="M 332.09375 73.171875 C 332.09375 73.171875 318.398438 42.386719 300.414062 41.722656 C 282.433594 41.042969 321.769531 75.882812 321.769531 75.882812 L 329.40625 81.71875 L 332.09375 79.546875 Z M 332.09375 73.171875 "/><path style=" stroke:none;fill-rule:nonzero;fill:#000000;fill-opacity:1;" d="M 333.914062 81.71875 C 333.914062 81.71875 348.980469 106.441406 365.59375 114.738281 C 382.230469 123.054688 368.96875 91.816406 344.925781 78.78125 Z M 333.914062 81.71875 "/><path style=" stroke:none;fill-rule:nonzero;fill:#000000;fill-opacity:1;" d="M 346.269531 84.863281 C 346.269531 84.863281 377.949219 89.808594 383.578125 84.863281 C 389.183594 79.917969 370.996094 65.082031 336.398438 75.882812 L 333.9375 81.71875 L 340.082031 84.636719 Z M 346.269531 84.863281 "/><path style=" stroke:none;fill-rule:nonzero;fill:#000000;fill-opacity:1;" d="M 331.207031 73.171875 C 331.207031 73.171875 344.902344 42.386719 362.882812 41.722656 C 380.867188 41.042969 341.53125 75.882812 341.53125 75.882812 L 333.894531 81.71875 L 331.207031 79.546875 Z M 331.207031 73.171875 "/><g clip-rule="nonzero" clip-path="url(#eab97076bd)"><path style=" stroke:none;fill-rule:nonzero;fill:#000000;fill-opacity:1;" d="M 336.066406 71.953125 C 336.066406 71.953125 336.648438 29.808594 331.101562 29.808594 C 325.554688 29.808594 327.316406 71.953125 327.316406 71.953125 L 331.101562 76.195312 Z M 336.066406 71.953125 "/></g><path style=" stroke:none;fill-rule:nonzero;fill:#000000;fill-opacity:1;" d="M 82.21875 158.953125 L 88.636719 158.953125 L 88.636719 272.105469 L 82.21875 272.105469 Z M 82.21875 158.953125 "/><path style=" stroke:none;fill-rule:nonzero;fill:#000000;fill-opacity:1;" d="M 83.917969 163.566406 C 83.917969 163.566406 71.316406 184.277344 57.371094 191.230469 C 43.445312 198.203125 54.554688 172.03125 74.6875 161.125 Z M 83.917969 163.566406 "/><path style=" stroke:none;fill-rule:nonzero;fill:#000000;fill-opacity:1;" d="M 73.550781 166.195312 C 73.550781 166.195312 47.003906 170.332031 42.304688 166.195312 C 37.609375 162.058594 52.839844 149.644531 81.828125 158.664062 L 83.898438 163.566406 L 78.746094 166.007812 Z M 73.550781 166.195312 "/><path style=" stroke:none;fill-rule:nonzero;fill:#000000;fill-opacity:1;" d="M 86.171875 156.410156 C 86.171875 156.410156 74.6875 130.628906 59.625 130.050781 C 44.5625 129.492188 77.503906 158.664062 77.503906 158.664062 L 83.898438 163.566406 L 86.152344 161.746094 L 86.152344 156.410156 Z M 86.171875 156.410156 "/><path style=" stroke:none;fill-rule:nonzero;fill:#000000;fill-opacity:1;" d="M 87.683594 163.566406 C 87.683594 163.566406 100.285156 184.277344 114.230469 191.230469 C 128.15625 198.203125 117.046875 172.03125 96.910156 161.125 Z M 87.683594 163.566406 "/><path style=" stroke:none;fill-rule:nonzero;fill:#000000;fill-opacity:1;" d="M 98.050781 166.195312 C 98.050781 166.195312 124.597656 170.332031 129.292969 166.195312 C 133.992188 162.058594 118.761719 149.644531 89.773438 158.664062 L 87.703125 163.566406 L 92.855469 166.007812 Z M 98.050781 166.195312 "/><path style=" stroke:none;fill-rule:nonzero;fill:#000000;fill-opacity:1;" d="M 85.429688 156.410156 C 85.429688 156.410156 96.910156 130.628906 111.976562 130.050781 C 127.039062 129.492188 94.097656 158.664062 94.097656 158.664062 L 87.703125 163.566406 L 85.449219 161.746094 L 85.449219 156.410156 Z M 85.429688 156.410156 "/><path style=" stroke:none;fill-rule:nonzero;fill:#000000;fill-opacity:1;" d="M 89.484375 155.394531 C 89.484375 155.394531 89.980469 120.078125 85.324219 120.078125 C 80.6875 120.078125 82.136719 155.394531 82.136719 155.394531 L 85.324219 158.953125 Z M 89.484375 155.394531 "/><path style=" stroke:none;fill-rule:nonzero;fill:#000000;fill-opacity:1;" d="M -6.152344 282.722656 L 375.320312 282.722656 L 375.320312 290.398438 L -6.152344 290.398438 Z M -6.152344 282.722656 "/><path style=" stroke:none;fill-rule:nonzero;fill:#f8be3e;fill-opacity:1;" d="M 54.820312 214.28125 C 55.492188 214.957031 56.128906 215.660156 56.734375 216.394531 C 57.335938 217.128906 57.902344 217.894531 58.433594 218.683594 C 58.960938 219.476562 59.449219 220.289062 59.898438 221.128906 C 60.347656 221.96875 60.753906 222.828125 61.117188 223.707031 C 61.480469 224.585938 61.800781 225.480469 62.078125 226.390625 C 62.351562 227.300781 62.585938 228.222656 62.769531 229.15625 C 62.957031 230.089844 63.09375 231.027344 63.1875 231.976562 C 63.28125 232.921875 63.328125 233.871094 63.328125 234.824219 C 63.328125 235.773438 63.28125 236.722656 63.1875 237.671875 C 63.09375 238.617188 62.957031 239.558594 62.769531 240.492188 C 62.585938 241.421875 62.355469 242.34375 62.078125 243.253906 C 61.800781 244.164062 61.480469 245.0625 61.117188 245.941406 C 60.753906 246.820312 60.347656 247.675781 59.898438 248.515625 C 59.449219 249.355469 58.960938 250.171875 58.433594 250.960938 C 57.902344 251.753906 57.335938 252.515625 56.734375 253.25 C 56.128906 253.988281 55.492188 254.691406 54.820312 255.363281 C 54.148438 256.035156 53.441406 256.675781 52.707031 257.277344 C 51.972656 257.882812 51.207031 258.449219 50.417969 258.976562 C 49.625 259.503906 48.8125 259.992188 47.972656 260.441406 C 47.132812 260.890625 46.273438 261.296875 45.394531 261.660156 C 44.515625 262.023438 43.621094 262.34375 42.710938 262.621094 C 41.800781 262.898438 40.878906 263.128906 39.945312 263.3125 C 39.011719 263.5 38.070312 263.640625 37.125 263.734375 C 36.179688 263.824219 35.230469 263.871094 34.277344 263.871094 C 33.324219 263.871094 32.375 263.824219 31.429688 263.734375 C 30.484375 263.640625 29.542969 263.5 28.609375 263.3125 C 27.675781 263.128906 26.753906 262.898438 25.84375 262.621094 C 24.933594 262.34375 24.039062 262.027344 23.160156 261.660156 C 22.28125 261.296875 21.421875 260.890625 20.582031 260.441406 C 19.742188 259.992188 18.929688 259.503906 18.136719 258.976562 C 17.347656 258.449219 16.582031 257.882812 15.847656 257.277344 C 15.113281 256.675781 14.40625 256.039062 13.734375 255.363281 C 13.0625 254.691406 12.425781 253.988281 11.820312 253.253906 C 11.214844 252.515625 10.652344 251.753906 10.121094 250.960938 C 9.59375 250.171875 9.105469 249.355469 8.65625 248.515625 C 8.207031 247.679688 7.800781 246.820312 7.4375 245.941406 C 7.074219 245.0625 6.753906 244.167969 6.476562 243.257812 C 6.199219 242.347656 5.96875 241.425781 5.785156 240.492188 C 5.597656 239.558594 5.457031 238.617188 5.367188 237.671875 C 5.273438 236.726562 5.226562 235.777344 5.226562 234.824219 C 5.226562 233.871094 5.273438 232.921875 5.367188 231.976562 C 5.457031 231.03125 5.597656 230.089844 5.785156 229.15625 C 5.96875 228.222656 6.199219 227.300781 6.476562 226.390625 C 6.753906 225.480469 7.074219 224.585938 7.4375 223.707031 C 7.800781 222.828125 8.207031 221.96875 8.65625 221.128906 C 9.105469 220.292969 9.59375 219.476562 10.121094 218.683594 C 10.648438 217.894531 11.214844 217.132812 11.820312 216.394531 C 12.421875 215.660156 13.0625 214.957031 13.734375 214.285156 C 14.40625 213.609375 15.109375 212.972656 15.847656 212.367188 C 16.582031 211.765625 17.34375 211.199219 18.136719 210.671875 C 18.925781 210.140625 19.742188 209.652344 20.582031 209.207031 C 21.421875 208.757812 22.28125 208.351562 23.160156 207.988281 C 24.039062 207.621094 24.933594 207.300781 25.84375 207.027344 C 26.753906 206.75 27.675781 206.519531 28.609375 206.332031 C 29.542969 206.148438 30.480469 206.007812 31.429688 205.914062 C 32.375 205.820312 33.324219 205.773438 34.277344 205.773438 C 35.226562 205.773438 36.175781 205.820312 37.125 205.914062 C 38.070312 206.007812 39.011719 206.148438 39.945312 206.332031 C 40.878906 206.519531 41.800781 206.75 42.710938 207.027344 C 43.621094 207.300781 44.515625 207.621094 45.394531 207.984375 C 46.273438 208.351562 47.132812 208.757812 47.972656 209.203125 C 48.808594 209.652344 49.625 210.140625 50.417969 210.671875 C 51.207031 211.199219 51.972656 211.765625 52.707031 212.367188 C 53.441406 212.972656 54.144531 213.609375 54.820312 214.28125 Z M 54.820312 214.28125 "/></g></svg>